<?xml version="1.0" encoding="UTF-8"?>
<svg xmlns="http://www.w3.org/2000/svg" xmlns:xlink="http://www.w3.org/1999/xlink" width="134.753pt" height="112.461pt" viewBox="0 0 134.753 112.461" version="1.1">
<defs>
<clipPath id="clip1">
  <path d="M 83 0 L 126 0 L 126 112.460938 L 83 112.460938 Z M 83 0 "/>
</clipPath>
<clipPath id="clip2">
  <path d="M 102 0 L 134.753906 0 L 134.753906 112.460938 L 102 112.460938 Z M 102 0 "/>
</clipPath>
<clipPath id="clip3">
  <path d="M 0 0 L 126 0 L 126 112.460938 L 0 112.460938 Z M 0 0 "/>
</clipPath>
</defs>
<g id="surface1">
<g clip-path="url(#clip1)" clip-rule="nonzero">
<path style="fill:none;stroke-width:0.79701;stroke-linecap:butt;stroke-linejoin:miter;stroke:rgb(0%,0%,0%);stroke-opacity:1;stroke-dasharray:2.98883,2.98883;stroke-miterlimit:10;" d="M 0.00115625 -0.0005 C -12.334781 5.437 -20.569156 34.84325 -18.397281 65.679188 C -16.741031 89.144031 -9.385563 107.526844 0.00115625 111.667469 " transform="matrix(1,0,0,-1,113.784,112.062)"/>
</g>
<g clip-path="url(#clip2)" clip-rule="nonzero">
<path style="fill:none;stroke-width:0.79701;stroke-linecap:butt;stroke-linejoin:miter;stroke:rgb(0%,0%,0%);stroke-opacity:1;stroke-miterlimit:10;" d="M 0.00115625 -0.0005 C 12.333187 5.437 20.571469 34.84325 18.395687 65.679188 C 16.739437 89.144031 9.387875 107.526844 0.00115625 111.667469 " transform="matrix(1,0,0,-1,113.784,112.062)"/>
</g>
<g clip-path="url(#clip3)" clip-rule="nonzero">
<path style="fill:none;stroke-width:0.79701;stroke-linecap:butt;stroke-linejoin:miter;stroke:rgb(0%,0%,0%);stroke-opacity:1;stroke-miterlimit:10;" d="M 0.00115625 -0.0005 L -113.385563 55.831531 L 0.00115625 111.667469 " transform="matrix(1,0,0,-1,113.784,112.062)"/>
</g>
<path style="fill-rule:nonzero;fill:rgb(69.999695%,69.999695%,100%);fill-opacity:1;stroke-width:0.3985;stroke-linecap:butt;stroke-linejoin:miter;stroke:rgb(0%,0%,0%);stroke-opacity:1;stroke-miterlimit:10;" d="M 7.520687 34.433094 C 7.040219 38.472156 1.786312 39.09325 -2.991031 37.804188 C -5.619938 37.09325 -8.354313 36.288563 -10.080875 34.175281 C -13.0965 30.476063 -11.916813 25.03075 -8.170719 21.733875 C -4.901188 18.854969 -0.0886875 18.347156 2.341 21.519031 C 3.739437 23.347156 3.563656 25.858875 4.512875 27.929188 C 5.532406 30.163563 7.817562 31.940906 7.520687 34.433094 Z M 7.520687 34.433094 " transform="matrix(1,0,0,-1,113.784,112.062)"/>
<path style="fill-rule:nonzero;fill:rgb(69.999695%,69.999695%,100%);fill-opacity:1;stroke-width:0.3985;stroke-linecap:butt;stroke-linejoin:miter;stroke:rgb(0%,0%,0%);stroke-opacity:1;stroke-miterlimit:10;" d="M 3.938656 54.651844 C 2.266781 54.167469 0.99725 52.890125 -0.436344 51.921375 C -5.994938 48.179188 -9.31525 42.729969 -5.280094 41.050281 C -4.174625 40.59325 -2.967594 41.034656 -1.784 41.140125 C 1.239437 41.409656 4.098812 39.437 7.110531 39.944813 C 9.735531 40.386219 11.704281 42.507313 12.37225 45.108875 C 13.856625 50.890125 9.114437 56.144031 3.938656 54.651844 Z M 3.938656 54.651844 " transform="matrix(1,0,0,-1,113.784,112.062)"/>
<path style="fill-rule:nonzero;fill:rgb(69.999695%,69.999695%,100%);fill-opacity:1;stroke-width:0.3985;stroke-linecap:butt;stroke-linejoin:miter;stroke:rgb(0%,0%,0%);stroke-opacity:1;stroke-miterlimit:10;" d="M -17.834781 61.284656 C -17.264469 59.987781 -16.323063 58.890125 -15.12775 58.1245 C -13.694156 57.202625 -11.889469 56.84325 -10.50275 57.772938 C -8.8465 58.878406 -8.643375 61.136219 -9.369938 63.081531 C -9.737125 64.062 -10.307438 64.956531 -11.00275 65.737781 C -12.338688 67.233875 -14.260563 68.257313 -16.061344 67.538563 C -18.3465 66.6245 -18.905094 63.722156 -17.834781 61.284656 Z M -17.834781 61.284656 " transform="matrix(1,0,0,-1,113.784,112.062)"/>
<path style="fill-rule:nonzero;fill:rgb(69.999695%,69.999695%,100%);fill-opacity:1;stroke-width:0.3985;stroke-linecap:butt;stroke-linejoin:miter;stroke:rgb(0%,0%,0%);stroke-opacity:1;stroke-miterlimit:10;" d="M -0.0144688 71.292469 C 0.133969 69.245594 0.594906 67.163563 2.005062 65.675281 C 3.665219 63.929188 6.204281 63.413563 8.540219 64.069813 C 11.294125 64.847156 13.391781 67.097156 13.907406 69.90575 C 14.555844 73.452625 12.62225 76.940906 9.337094 78.479969 C 6.438656 79.839344 2.938656 79.347156 1.110531 76.812 C -0.0222813 75.241688 -0.155094 73.226063 -0.0144688 71.292469 Z M -0.0144688 71.292469 " transform="matrix(1,0,0,-1,113.784,112.062)"/>
<path style="fill-rule:nonzero;fill:rgb(69.999695%,69.999695%,100%);fill-opacity:1;stroke-width:0.3985;stroke-linecap:butt;stroke-linejoin:miter;stroke:rgb(0%,0%,0%);stroke-opacity:1;stroke-miterlimit:10;" d="M 1.415219 86.784656 C -0.467594 88.558094 -3.244938 88.503406 -5.823063 88.671375 C -7.338688 88.769031 -9.034 88.769031 -9.701969 87.476063 C -10.733219 85.476063 -8.284 83.897938 -6.057438 82.616688 C -5.135563 82.085438 -4.307438 81.409656 -3.483219 80.733875 C -2.651188 80.054188 -1.760563 79.358875 -0.682438 79.315906 C 2.751156 79.175281 4.49725 83.886219 1.415219 86.784656 Z M 1.415219 86.784656 " transform="matrix(1,0,0,-1,113.784,112.062)"/>
<path style="fill-rule:nonzero;fill:rgb(69.999695%,69.999695%,100%);fill-opacity:1;stroke-width:0.3985;stroke-linecap:butt;stroke-linejoin:miter;stroke:rgb(0%,0%,0%);stroke-opacity:1;stroke-miterlimit:10;" d="M 4.231625 94.202625 C 5.044125 94.062 5.829281 93.667469 6.645687 93.815906 C 8.219906 94.097156 8.880062 95.862781 8.833187 97.585438 C 8.751156 100.702625 6.286312 102.894031 4.305844 101.667469 C 2.907406 100.800281 3.266781 98.851063 2.723812 97.358875 C 2.419125 96.515125 1.844906 95.632313 2.348812 94.897938 C 2.74725 94.315906 3.536312 94.323719 4.231625 94.202625 Z M 4.231625 94.202625 " transform="matrix(1,0,0,-1,113.784,112.062)"/>
</g>
</svg>
